<?xml version="1.0" encoding="UTF-8" standalone="no"?>
<svg
   xmlns:dc="http://purl.org/dc/elements/1.1/"
   xmlns:cc="http://creativecommons.org/ns#"
   xmlns:rdf="http://www.w3.org/1999/02/22-rdf-syntax-ns#"
   xmlns:svg="http://www.w3.org/2000/svg"
   xmlns="http://www.w3.org/2000/svg"
   xmlns:xlink="http://www.w3.org/1999/xlink"
   xmlns:sodipodi="http://sodipodi.sourceforge.net/DTD/sodipodi-0.dtd"
   xmlns:inkscape="http://www.inkscape.org/namespaces/inkscape"
   sodipodi:docname="blacs_16x16.svg"
   inkscape:version="1.0 (4035a4fb49, 2020-05-01)"
   id="svg1010"
   version="1.1"
   viewBox="0 0 4.2333336 4.2333336"
   height="4.2333336mm"
   width="4.2333336mm">
  <defs
     id="defs1004">
    <linearGradient
       y2="-28"
       x2="82.800003"
       y1="-26.4"
       x1="82.800003"
       gradientUnits="userSpaceOnUse"
       id="linearGradient4301"
       xlink:href="#linearGradient4075"
       inkscape:collect="always" />
    <linearGradient
       id="linearGradient4075"
       inkscape:collect="always">
      <stop
         id="stop4071"
         offset="0"
         style="stop-color:#e5e5e5;stop-opacity:1;" />
      <stop
         id="stop4073"
         offset="1"
         style="stop-color:#ffffff;stop-opacity:1" />
    </linearGradient>
  </defs>
  <sodipodi:namedview
     inkscape:bbox-nodes="true"
     inkscape:snap-bbox="true"
     inkscape:snap-page="true"
     inkscape:window-maximized="0"
     inkscape:window-y="0"
     inkscape:window-x="960"
     inkscape:window-height="1027"
     inkscape:window-width="960"
     fit-margin-bottom="0"
     fit-margin-right="0"
     fit-margin-left="0"
     fit-margin-top="0"
     showgrid="false"
     inkscape:document-rotation="0"
     inkscape:current-layer="layer1"
     inkscape:document-units="mm"
     inkscape:cy="5.2479162"
     inkscape:cx="5.4845256"
     inkscape:zoom="22.4"
     inkscape:pageshadow="2"
     inkscape:pageopacity="0.0"
     borderopacity="1.0"
     bordercolor="#666666"
     pagecolor="#ffffff"
     id="base" />
  <metadata
     id="metadata1007">
    <rdf:RDF>
      <cc:Work
         rdf:about="">
        <dc:format>image/svg+xml</dc:format>
        <dc:type
           rdf:resource="http://purl.org/dc/dcmitype/StillImage" />
        <dc:title></dc:title>
      </cc:Work>
    </rdf:RDF>
  </metadata>
  <g
     transform="translate(-128.6631,-40.216667)"
     id="layer1"
     inkscape:groupmode="layer"
     inkscape:label="Layer 1">
    <g
       inkscape:export-ydpi="96"
       inkscape:export-xdpi="96"
       transform="matrix(0.33072917,0,0,0.33072917,110.67143,51.329167)"
       id="g4190">
      <rect
         rx="1.9999996"
         ry="2"
         y="-33.200001"
         x="54.799999"
         height="12"
         width="12"
         id="rect935-3-7-7"
         style="font-variation-settings:normal;opacity:1;vector-effect:none;fill:url(#linearGradient4301);fill-opacity:1;stroke:#020308;stroke-width:0.8;stroke-linecap:round;stroke-linejoin:round;stroke-miterlimit:4;stroke-dasharray:none;stroke-dashoffset:0;stroke-opacity:1;stop-color:#000000;stop-opacity:1" />
      <path
         sodipodi:nodetypes="cccsscsczscccscccccssccccccczcc"
         d="m 64.799998,-29.6 c -0.03632,-1.735867 -1.377183,-2.392965 -2.657728,-2.4 h -2.942272 c -0.4,0 -0.8,0 -0.8,0.19503 0,0.20497 0.23062,0.280156 0.4,0.404577 0.234812,0.172486 0.4,0.33522 0.4,1.000393 V -28.585927 -24 c 0,0.8 -0.148757,0.8 -0.4,1.000549 -0.251242,0.200549 -0.4,0.199451 -0.4,0.392151 0,0.2073 0.4,0.2073 0.8,0.2073 1.10798,-0.0027 1.829311,2.17e-4 3.2,0 0.49795,0 1.477984,-0.150234 2.160886,-0.646008 0.668675,-0.480751 1.039114,-1.207514 1.039114,-2.153992 0,-1.231924 -0.384667,-1.99249 -1.494382,-2.473241 -0.04269,0 -0.05691,-0.150234 -0.01423,-0.165257 0.341455,-0.270423 0.708612,-0.634742 0.708612,-1.761502 m -1.6,0 c 0,0.570891 -0.180401,1.095189 -0.621441,1.440729 C 62.215522,-27.931168 61.641039,-28 61.199998,-28 c -0.4,0 -0.4,0 -0.4,-0.4 v -2.4 c 0.105492,-0.437124 0.4,-0.4 0.8,-0.4 0.867855,0 1.6,0 1.6,1.6 m 0.8,4.4 c 0,1.17183 -0.964946,2 -1.6,2 -0.717656,0.01093 -1.6,0 -1.6,-0.8 -0.01422,-0.405634 0,-2.084508 0,-2.4 0.0019,-0.596446 0.4,-0.8 0.8,-0.8 0.4,0 0.915457,0.08137 1.2,0.261649 0.59754,0.345539 1.2,0.882013 1.2,1.738351"
         style="color:#000000;font-style:normal;font-variant:normal;font-weight:bold;font-stretch:normal;font-size:146.893px;line-height:125%;font-family:'Garamond Premier Pro';-inkscape-font-specification:'Garamond Premier Pro Bold';text-indent:0;text-align:start;text-decoration:none;text-decoration-line:none;letter-spacing:0px;word-spacing:0px;text-transform:none;writing-mode:lr-tb;direction:ltr;baseline-shift:baseline;text-anchor:start;visibility:visible;fill:#2945bb;fill-opacity:1;fill-rule:nonzero;stroke:none;stroke-width:0.448364;marker:none"
         id="path3019-7-3" />
      <rect
         ry="0.39999971"
         y="-31.199999"
         x="56"
         height="1.5999994"
         width="2.3999994"
         id="rect3047-6-2-2-5-1"
         style="color:#000000;display:inline;overflow:visible;visibility:visible;fill:#008044;fill-opacity:1;fill-rule:nonzero;stroke:#009650;stroke-width:0;stroke-linecap:round;stroke-linejoin:round;stroke-miterlimit:4;stroke-dasharray:none;stroke-dashoffset:0;stroke-opacity:1;marker:none;enable-background:accumulate"
         rx="0.40000075" />
      <rect
         rx="0.40000075"
         style="color:#000000;display:inline;overflow:visible;visibility:visible;fill:#008044;fill-opacity:1;fill-rule:nonzero;stroke:#009650;stroke-width:0;stroke-linecap:round;stroke-linejoin:round;stroke-miterlimit:4;stroke-dasharray:none;stroke-dashoffset:0;stroke-opacity:1;marker:none;enable-background:accumulate"
         id="rect3047-6-2-2-5-2-9"
         width="2.3999994"
         height="1.5999992"
         x="56"
         y="-28.799999"
         ry="0.39999968" />
      <path
         sodipodi:nodetypes="cc"
         id="path1428-7"
         d="M 56.399998,-22.742857 V -26"
         style="fill:none;stroke:#bc294c;stroke-width:0.8;stroke-linecap:round;stroke-linejoin:miter;stroke-miterlimit:4;stroke-dasharray:none;stroke-opacity:1" />
      <path
         sodipodi:nodetypes="ccc"
         id="path1446-4"
         d="m 56.399998,-23.6 1.6,-1.6 V -26"
         style="font-variation-settings:normal;vector-effect:none;fill:none;fill-opacity:1;stroke:#bc294c;stroke-width:0.8;stroke-linecap:round;stroke-linejoin:round;stroke-miterlimit:4;stroke-dasharray:none;stroke-dashoffset:0;stroke-opacity:1;stop-color:#000000" />
    </g>
  </g>
</svg>
