<?xml version="1.0" encoding="UTF-8" standalone="no"?>
<svg
   xmlns:dc="http://purl.org/dc/elements/1.1/"
   xmlns:cc="http://creativecommons.org/ns#"
   xmlns:rdf="http://www.w3.org/1999/02/22-rdf-syntax-ns#"
   xmlns:svg="http://www.w3.org/2000/svg"
   xmlns="http://www.w3.org/2000/svg"
   xmlns:xlink="http://www.w3.org/1999/xlink"
   xmlns:sodipodi="http://sodipodi.sourceforge.net/DTD/sodipodi-0.dtd"
   xmlns:inkscape="http://www.inkscape.org/namespaces/inkscape"
   sodipodi:docname="blacs_scalable.svg"
   inkscape:version="1.0 (4035a4fb49, 2020-05-01)"
   id="svg1010"
   version="1.1"
   viewBox="0 0 8.4666672 8.4666672"
   height="8.4666672mm"
   width="8.4666672mm">
  <defs
     id="defs1004">
    <clipPath
       clipPathUnits="userSpaceOnUse"
       id="clipath_lpe_path-effect1755">
      <circle
         style="font-variation-settings:normal;display:none;opacity:0.494306;vector-effect:none;fill:#0b0094;fill-opacity:1;stroke:none;stroke-width:0.8;stroke-linecap:butt;stroke-linejoin:miter;stroke-miterlimit:4;stroke-dasharray:none;stroke-dashoffset:0;stroke-opacity:1;marker:none;stop-color:#000000;stop-opacity:1"
         id="circle1757"
         cx="96"
         cy="17.6"
         r="1.6000007" />
      <path
         id="lpe_path-effect1755"
         style="font-variation-settings:normal;opacity:0.494306;vector-effect:none;fill:#0b0094;fill-opacity:1;stroke:none;stroke-width:0.8;stroke-linecap:butt;stroke-linejoin:miter;stroke-miterlimit:4;stroke-dasharray:none;stroke-dashoffset:0;stroke-opacity:1;marker:none;stop-color:#000000;stop-opacity:1"
         class="powerclip"
         d="M 86.2,12.6 H 101 V 27.400001 H 86.2 Z m 11.400001,5 A 1.6000007,1.6000007 0 0 0 96,16 1.6000007,1.6000007 0 0 0 94.399999,17.6 1.6000007,1.6000007 0 0 0 96,19.200001 1.6000007,1.6000007 0 0 0 97.600001,17.6" />
    </clipPath>
    <inkscape:path-effect
       message="Use fill-rule evenodd on &lt;b&gt;fill and stroke&lt;/b&gt; dialog if no flatten result after convert clip to paths."
       hide_clip="false"
       flatten="false"
       inverse="true"
       lpeversion="1"
       is_visible="true"
       id="path-effect1755"
       effect="powerclip" />
    <clipPath
       clipPathUnits="userSpaceOnUse"
       id="clipath_lpe_path-effect2646">
      <circle
         style="font-variation-settings:normal;display:none;opacity:0.494306;vector-effect:none;fill:#0b0094;fill-opacity:1;stroke:none;stroke-width:0.8;stroke-linecap:butt;stroke-linejoin:miter;stroke-miterlimit:4;stroke-dasharray:none;stroke-dashoffset:0;stroke-opacity:1;marker:none;stop-color:#000000;stop-opacity:1"
         id="circle2648"
         cx="96"
         cy="17.6"
         r="1.6000007" />
      <path
         id="lpe_path-effect2646"
         style="font-variation-settings:normal;opacity:0.494306;vector-effect:none;fill:#0b0094;fill-opacity:1;stroke:none;stroke-width:0.8;stroke-linecap:butt;stroke-linejoin:miter;stroke-miterlimit:4;stroke-dasharray:none;stroke-dashoffset:0;stroke-opacity:1;marker:none;stop-color:#000000;stop-opacity:1"
         class="powerclip"
         d="M 86.2,12.6 H 101 V 27.400001 H 86.2 Z m 11.400001,5 A 1.6000007,1.6000007 0 0 0 96,16 1.6000007,1.6000007 0 0 0 94.399999,17.6 1.6000007,1.6000007 0 0 0 96,19.200001 1.6000007,1.6000007 0 0 0 97.600001,17.6" />
    </clipPath>
    <inkscape:path-effect
       message="Use fill-rule evenodd on &lt;b&gt;fill and stroke&lt;/b&gt; dialog if no flatten result after convert clip to paths."
       hide_clip="false"
       flatten="false"
       inverse="true"
       lpeversion="1"
       is_visible="true"
       id="path-effect2646"
       effect="powerclip" />
    <linearGradient
       gradientTransform="matrix(1.0333334,0,0,1.0333334,-2.2400045,-0.42666753)"
       y2="14.4"
       x2="84.800003"
       y1="9.6000004"
       x1="84.800003"
       gradientUnits="userSpaceOnUse"
       id="linearGradient3962"
       xlink:href="#linearGradient3601"
       inkscape:collect="always" />
    <linearGradient
       inkscape:collect="always"
       id="linearGradient3601">
      <stop
         style="stop-color:#ffffff;stop-opacity:1"
         offset="0"
         id="stop3597" />
      <stop
         style="stop-color:#e5e5e5;stop-opacity:1"
         offset="1"
         id="stop3599" />
    </linearGradient>
  </defs>
  <sodipodi:namedview
     inkscape:bbox-nodes="true"
     inkscape:snap-bbox="true"
     inkscape:snap-page="true"
     inkscape:window-maximized="0"
     inkscape:window-y="0"
     inkscape:window-x="960"
     inkscape:window-height="1027"
     inkscape:window-width="960"
     fit-margin-bottom="0"
     fit-margin-right="0"
     fit-margin-left="0"
     fit-margin-top="0"
     showgrid="false"
     inkscape:document-rotation="0"
     inkscape:current-layer="layer1"
     inkscape:document-units="mm"
     inkscape:cy="13.811218"
     inkscape:cx="18.082461"
     inkscape:zoom="15.839192"
     inkscape:pageshadow="2"
     inkscape:pageopacity="0.0"
     borderopacity="1.0"
     bordercolor="#666666"
     pagecolor="#ffffff"
     id="base" />
  <metadata
     id="metadata1007">
    <rdf:RDF>
      <cc:Work
         rdf:about="">
        <dc:format>image/svg+xml</dc:format>
        <dc:type
           rdf:resource="http://purl.org/dc/dcmitype/StillImage" />
        <dc:title></dc:title>
      </cc:Work>
    </rdf:RDF>
  </metadata>
  <g
     transform="translate(-117.14545,-35.772669)"
     id="layer1"
     inkscape:groupmode="layer"
     inkscape:label="Layer 1">
    <g
       inkscape:export-ydpi="96"
       inkscape:export-xdpi="96"
       id="g4252"
       transform="matrix(0.33072917,0,0,0.33072917,99.153787,35.772669)">
      <rect
         style="font-variation-settings:normal;opacity:1;vector-effect:none;fill:url(#linearGradient3962);fill-opacity:1;stroke:#020308;stroke-width:0.800001;stroke-linecap:round;stroke-linejoin:round;stroke-miterlimit:4;stroke-dasharray:none;stroke-dashoffset:0;stroke-opacity:1;stop-color:#000000;stop-opacity:1"
         id="rect935-3-7"
         width="24.800001"
         height="24.800001"
         x="54.800003"
         y="0.40000001"
         ry="4.4000001"
         rx="4.4000063" />
      <path
         id="path3019-7"
         style="color:#000000;font-style:normal;font-variant:normal;font-weight:bold;font-stretch:normal;font-size:146.893px;line-height:125%;font-family:'Garamond Premier Pro';-inkscape-font-specification:'Garamond Premier Pro Bold';text-indent:0;text-align:start;text-decoration:none;text-decoration-line:none;letter-spacing:0px;word-spacing:0px;text-transform:none;writing-mode:lr-tb;direction:ltr;baseline-shift:baseline;text-anchor:start;visibility:visible;fill:#2945bb;fill-opacity:1;fill-rule:nonzero;stroke:none;stroke-width:0.896728;marker:none"
         d="M 75.2,8 C 75.127361,4.5282664 72.445634,3.214071 69.884544,3.1999998 L 64,3.2 c -0.8,0 -1.6,0 -1.6,0.3900593 C 62.4,4 62.861239,4.1503718 63.2,4.3992146 63.669624,4.744185 64,5.069654 64,6.4 V 10.028147 19.2 c 0,1.6 -0.297515,1.6 -0.8,2.001098 C 62.697515,21.602196 62.4,21.6 62.4,21.9854 62.4,22.4 63.2,22.4 64,22.4 c 2.21596,-0.0053 3.658623,4.33e-4 6.4,0 0.995899,0 2.955968,-0.300468 4.321772,-1.292015 C 76.059123,20.146483 76.8,18.692956 76.8,16.8 c 0,-2.463848 -0.769333,-3.984979 -2.988765,-4.946481 -0.08537,0 -0.113817,-0.300469 -0.02845,-0.330516 C 74.465686,10.982158 75.2,10.25352 75.2,8 M 72,8 c 0,1.141783 -0.360802,2.190378 -1.242882,2.881458 C 70.031048,11.337665 68.882082,11.2 68,11.2 c -0.8,0 -0.8,0 -0.8,-0.8 V 5.6 C 67.410983,4.7257527 68,4.8 68.8,4.8 70.53571,4.8 72,4.8 72,8 m 1.6,8.8 c 0,2.34366 -1.929891,4 -3.2,4 -1.435312,0.02187 -3.2,0 -3.2,-1.6 -0.02845,-0.811267 0,-4.169016 0,-4.8 0.0038,-1.192891 0.8,-1.6 1.6,-1.6 0.8,0 1.830915,0.162738 2.4,0.523298 1.19508,0.691079 2.4,1.764027 2.4,3.476702"
         sodipodi:nodetypes="cccsscsczscccscccccssccccccczcc" />
      <rect
         rx="0.8000015"
         style="color:#000000;display:inline;overflow:visible;visibility:visible;fill:#008044;fill-opacity:1;fill-rule:nonzero;stroke:#009650;stroke-width:0;stroke-linecap:round;stroke-linejoin:round;stroke-miterlimit:4;stroke-dasharray:none;stroke-dashoffset:0;stroke-opacity:1;marker:none;enable-background:accumulate"
         id="rect3047-6-2-2-5"
         width="3.9999971"
         height="2.3999987"
         x="57.600002"
         y="4.8000007"
         ry="0.79999948" />
      <rect
         ry="0.79999936"
         y="8"
         x="57.600002"
         height="2.3999991"
         width="3.9999971"
         id="rect3047-6-2-2-5-2"
         style="color:#000000;display:inline;overflow:visible;visibility:visible;fill:#008044;fill-opacity:1;fill-rule:nonzero;stroke:#009650;stroke-width:0;stroke-linecap:round;stroke-linejoin:round;stroke-miterlimit:4;stroke-dasharray:none;stroke-dashoffset:0;stroke-opacity:1;marker:none;enable-background:accumulate"
         rx="0.8000015" />
      <path
         id="path1334-3"
         d="m 59.581127,12.041949 -0.652562,1.132603 h 0.465506 v 5.789043 l -1.188143,-1.127191 c -0.07671,-0.09593 -0.130531,-0.221442 -0.133512,-0.350553 0,-0.522311 -1.33e-4,-0.832481 -4.86e-4,-0.946653 0.219983,-0.07739 0.378764,-0.285273 0.378764,-0.532406 0,-0.312639 -0.253112,-0.566358 -0.565142,-0.566358 -0.312166,0 -0.565186,0.253697 -0.565186,0.566358 0,0.247133 0.158691,0.455016 0.378491,0.532406 l -1.34e-4,0.935561 c 0,0.253561 0.138796,0.519253 0.301508,0.688362 -0.0048,-0.0046 -0.01,-0.0094 8.8e-5,2.59e-4 0.004,0.0036 1.260457,1.195915 1.260457,1.195915 0.0766,0.09573 0.130078,0.221169 0.133151,0.350191 v 0.654884 c -0.431632,0.08681 -0.75683,0.468846 -0.75683,0.927119 0,0.52249 0.422553,0.946021 0.943681,0.946021 0.521287,0 0.943861,-0.423531 0.943861,-0.946021 0,-0.458365 -0.325467,-0.840404 -0.757459,-0.92721 v -0.643408 c 0,-0.0017 8.9e-5,-0.0033 0,-0.0049 v -1.423088 c 0.0032,-0.128771 0.05682,-0.254058 0.133511,-0.349692 0,0 1.256344,-1.192064 1.260408,-1.195754 0.0101,-0.0096 0.0048,-0.0048 8.5e-5,-8.5e-5 0.162688,-0.169108 0.301393,-0.434915 0.301393,-0.688521 l -1.34e-4,-0.901608 h 0.378877 v -1.132891 h -1.130172 v 1.132896 h 0.37838 c 0,0 -4.86e-4,0.237467 -4.86e-4,0.912654 -0.0029,0.129136 -0.05671,0.254783 -0.133422,0.350667 l -1.188366,1.127441 v -4.373342 h 0.466248 l -0.65247,-1.132602 z"
         inkscape:connector-curvature="0"
         style="color:#000000;display:inline;overflow:visible;visibility:visible;fill:#bc294c;fill-opacity:1;fill-rule:nonzero;stroke:#bc294c;stroke-width:0.4;stroke-linejoin:round;stroke-miterlimit:4;stroke-dasharray:none;stroke-opacity:1;marker:none;enable-background:accumulate" />
    </g>
  </g>
</svg>
