<?xml version='1.0' encoding='ASCII' standalone='yes'?>
<svg xmlns:dc="http://purl.org/dc/elements/1.1/" xmlns:cc="http://creativecommons.org/ns#" xmlns:rdf="http://www.w3.org/1999/02/22-rdf-syntax-ns#" xmlns:svg="http://www.w3.org/2000/svg" xmlns="http://www.w3.org/2000/svg" xmlns:xlink="http://www.w3.org/1999/xlink" id="svg1010" version="1.1" viewBox="0 0 35.454163 8.4666672" height="67.7333376mm" width="283.633304mm">
  <defs id="defs1004">
    <clipPath clipPathUnits="userSpaceOnUse" id="clipath_lpe_path-effect1755">
      <circle style="font-variation-settings:normal;display:none;opacity:0.494306;vector-effect:none;fill:#0b0094;fill-opacity:1;stroke:none;stroke-width:0.8;stroke-linecap:butt;stroke-linejoin:miter;stroke-miterlimit:4;stroke-dasharray:none;stroke-dashoffset:0;stroke-opacity:1;marker:none;stop-color:#000000;stop-opacity:1" id="circle1757" cx="96" cy="17.6" r="1.6000007"/>
      <path id="lpe_path-effect1755" style="font-variation-settings:normal;opacity:0.494306;vector-effect:none;fill:#0b0094;fill-opacity:1;stroke:none;stroke-width:0.8;stroke-linecap:butt;stroke-linejoin:miter;stroke-miterlimit:4;stroke-dasharray:none;stroke-dashoffset:0;stroke-opacity:1;marker:none;stop-color:#000000;stop-opacity:1" class="powerclip" d="M 86.2,12.6 H 101 V 27.400001 H 86.2 Z m 11.400001,5 A 1.6000007,1.6000007 0 0 0 96,16 1.6000007,1.6000007 0 0 0 94.399999,17.6 1.6000007,1.6000007 0 0 0 96,19.200001 1.6000007,1.6000007 0 0 0 97.600001,17.6"/>
    </clipPath>
    <clipPath clipPathUnits="userSpaceOnUse" id="clipath_lpe_path-effect2646">
      <circle style="font-variation-settings:normal;display:none;opacity:0.494306;vector-effect:none;fill:#0b0094;fill-opacity:1;stroke:none;stroke-width:0.8;stroke-linecap:butt;stroke-linejoin:miter;stroke-miterlimit:4;stroke-dasharray:none;stroke-dashoffset:0;stroke-opacity:1;marker:none;stop-color:#000000;stop-opacity:1" id="circle2648" cx="96" cy="17.6" r="1.6000007"/>
      <path id="lpe_path-effect2646" style="font-variation-settings:normal;opacity:0.494306;vector-effect:none;fill:#0b0094;fill-opacity:1;stroke:none;stroke-width:0.8;stroke-linecap:butt;stroke-linejoin:miter;stroke-miterlimit:4;stroke-dasharray:none;stroke-dashoffset:0;stroke-opacity:1;marker:none;stop-color:#000000;stop-opacity:1" class="powerclip" d="M 86.2,12.6 H 101 V 27.400001 H 86.2 Z m 11.400001,5 A 1.6000007,1.6000007 0 0 0 96,16 1.6000007,1.6000007 0 0 0 94.399999,17.6 1.6000007,1.6000007 0 0 0 96,19.200001 1.6000007,1.6000007 0 0 0 97.600001,17.6"/>
    </clipPath>
    <clipPath clipPathUnits="userSpaceOnUse" id="clipPath2749">
      <circle style="font-variation-settings:normal;display:none;opacity:0.494306;vector-effect:none;fill:#0b0094;fill-opacity:1;stroke:none;stroke-width:0.8;stroke-linecap:butt;stroke-linejoin:miter;stroke-miterlimit:4;stroke-dasharray:none;stroke-dashoffset:0;stroke-opacity:1;marker:none;stop-color:#000000;stop-opacity:1" id="circle2751" cx="96" cy="17.6" r="1.6000007"/>
      <path id="lpe_path-effect2753" style="font-variation-settings:normal;opacity:0.494306;vector-effect:none;fill:#0b0094;fill-opacity:1;stroke:none;stroke-width:0.8;stroke-linecap:butt;stroke-linejoin:miter;stroke-miterlimit:4;stroke-dasharray:none;stroke-dashoffset:0;stroke-opacity:1;marker:none;stop-color:#000000;stop-opacity:1" class="powerclip" d="M 86.2,12.6 H 101 V 27.400001 H 86.2 Z m 11.400001,5 A 1.6000007,1.6000007 0 0 0 96,16 1.6000007,1.6000007 0 0 0 94.399999,17.6 1.6000007,1.6000007 0 0 0 96,19.200001 1.6000007,1.6000007 0 0 0 97.600001,17.6"/>
    </clipPath>
    <linearGradient xlink:href="#linearGradient3669" id="linearGradient3958-8" gradientUnits="userSpaceOnUse" x1="84.800003" y1="9.6000004" x2="84.800003" y2="14.4" gradientTransform="matrix(4.4333328,0,0,1.0333333,25.65334,1.1733336)"/>
    <linearGradient id="linearGradient3669">
      <stop id="stop3665" offset="0" style="stop-color:#ffffff;stop-opacity:1"/>
      <stop id="stop3667" offset="1" style="stop-color:#e5e5e5;stop-opacity:1"/>
    </linearGradient>
  </defs>
  <metadata id="metadata1007">
    <rdf:RDF>
      <cc:Work rdf:about="">
        <dc:format>image/svg+xml</dc:format>
        <dc:type rdf:resource="http://purl.org/dc/dcmitype/StillImage"/>
        <dc:title/>
      </cc:Work>
    </rdf:RDF>
  </metadata>
  <g transform="translate(-101.20817,-33.997313)" id="layer1">
    <g transform="matrix(0.33072917,0,0,0.33072917,91.683169,33.468146)" id="g1911">
      <rect rx="4.3999848" ry="4.400001" y="1.9999995" x="29.200001" height="24.800001" width="106.39999" id="rect935-0" style="font-variation-settings:normal;opacity:1;vector-effect:none;fill:url(#linearGradient3958-8);fill-opacity:1;stroke:#020308;stroke-width:0.799999;stroke-linecap:round;stroke-linejoin:round;stroke-miterlimit:4;stroke-dasharray:none;stroke-dashoffset:0;stroke-opacity:1;stop-color:#000000;stop-opacity:1"/>
      <path style="fill:#ff5555;stroke:#bc294c;stroke-width:0.8;stroke-linecap:square;stroke-linejoin:miter;stroke-miterlimit:4;stroke-dasharray:0.8, 1.6;stroke-dashoffset:0;stroke-opacity:1" d="M 50,6.7713906 V 22.763904" id="path3773-4-12"/>
      <path id="path3773-4-6-88" d="M 45.2,6.7713916 V 22.763905" style="fill:#ff5555;stroke:#bc294c;stroke-width:0.8;stroke-linecap:square;stroke-linejoin:miter;stroke-miterlimit:4;stroke-dasharray:0.8, 1.6;stroke-dashoffset:0;stroke-opacity:1"/>
      <path id="path3773-4-7-9" d="M 42,6.7713916 V 22.763905" style="fill:#ff5555;stroke:#bc294c;stroke-width:0.8;stroke-linecap:square;stroke-linejoin:miter;stroke-miterlimit:4;stroke-dasharray:0.8, 1.6;stroke-dashoffset:0;stroke-opacity:1"/>
      <path id="path3773-4-5-2" d="M 38.8,6.7713916 V 22.763905" style="fill:#ff5555;stroke:#bc294c;stroke-width:0.8;stroke-linecap:square;stroke-linejoin:miter;stroke-miterlimit:4;stroke-dasharray:0.8, 1.6;stroke-dashoffset:0;stroke-opacity:1"/>
      <path id="path3773-4-3-8" d="M 35.6,6.7713916 V 22.763905" style="fill:#ff5555;stroke:#bc294c;stroke-width:0.8;stroke-linecap:square;stroke-linejoin:miter;stroke-miterlimit:4;stroke-dasharray:0.8, 1.6;stroke-dashoffset:0;stroke-opacity:1"/>
      <path style="fill:#ff5555;stroke:#008044;stroke-width:0.8;stroke-linecap:square;stroke-linejoin:miter;stroke-miterlimit:4;stroke-dasharray:0.8, 1.6;stroke-dashoffset:0;stroke-opacity:1" d="M 32.4,6.7713916 V 22.763905" id="path3773-4-3-5-8"/>
      <path style="fill:none;stroke:#2945bb;stroke-width:1.60001;stroke-linecap:round;stroke-linejoin:round;stroke-miterlimit:4;stroke-dasharray:none;stroke-opacity:1" d="M 50.4,21.6 V 8.8000026 H 45.600003 V 21.6 H 42.400002 L 42.4,16.787648 h -3.2 v -4.8 H 36 V 7.1876476 h -3.2" id="path3769-8"/>
      <g style="font-style:normal;font-variant:normal;font-weight:normal;font-stretch:normal;font-size:18.7241px;line-height:1.25;font-family:'Ubuntu Mono';-inkscape-font-specification:'Ubuntu Mono';font-variation-settings:normal;letter-spacing:-0.504px;word-spacing:0px;opacity:1;vector-effect:none;fill:#008044;fill-opacity:1;stroke:none;stroke-width:11.812;stroke-linecap:butt;stroke-linejoin:miter;stroke-miterlimit:4;stroke-dasharray:none;stroke-dashoffset:0;stroke-opacity:1;marker:none;stop-color:#000000;stop-opacity:1" id="text4404" aria-label="labscript">
        <path id="path2595" style="font-weight:bold;font-size:18.7241px;font-variation-settings:normal;vector-effect:none;fill:#008044;fill-opacity:1;stroke:none;stroke-width:11.812;stroke-linecap:butt;stroke-linejoin:miter;stroke-miterlimit:4;stroke-dasharray:none;stroke-dashoffset:0;stroke-opacity:1;marker:none;stop-color:#000000;stop-opacity:1" d="m 60.866282,20.223748 q -0.05617,0.03745 -0.262137,0.131069 -0.187241,0.09362 -0.505551,0.205965 -0.31831,0.09362 -0.786412,0.168517 -0.449378,0.0749 -1.029826,0.0749 -1.591548,0 -2.321788,-0.936205 -0.73024,-0.954929 -0.73024,-2.771166 V 9.6259077 H 52.796195 V 7.7160495 h 4.737197 v 9.5492915 q 0,0.898756 0.355758,1.217066 0.355758,0.31831 0.898757,0.31831 0.692792,0 1.160894,-0.187241 0.468103,-0.187241 0.617896,-0.243414 z"/>
        <path id="path2597" style="font-weight:bold;font-size:18.7241px;font-variation-settings:normal;vector-effect:none;fill:#008044;fill-opacity:1;stroke:none;stroke-width:11.812;stroke-linecap:butt;stroke-linejoin:miter;stroke-miterlimit:4;stroke-dasharray:none;stroke-dashoffset:0;stroke-opacity:1;marker:none;stop-color:#000000;stop-opacity:1" d="m 65.679892,18.95051 q 0.374482,0 0.73024,0 0.355758,-0.01872 0.617895,-0.05617 v -2.022203 q -0.224689,-0.03745 -0.542999,-0.05617 -0.31831,-0.03745 -0.580447,-0.03745 -0.355758,0 -0.692792,0.05617 -0.337034,0.03745 -0.599171,0.149793 -0.243413,0.112345 -0.393206,0.31831 -0.149793,0.205965 -0.149793,0.542999 0,0.599171 0.449379,0.861308 0.449378,0.243414 1.160894,0.243414 z m -0.205965,-7.377296 q 1.085997,0 1.797513,0.262138 0.73024,0.243413 1.160894,0.711515 0.430655,0.449379 0.617896,1.123446 0.187241,0.655344 0.187241,1.479204 v 5.242748 q -0.505551,0.112345 -1.497928,0.262138 -0.992378,0.149792 -2.228168,0.149792 -0.842585,0 -1.535376,-0.149792 -0.674068,-0.149793 -1.160895,-0.486827 -0.486826,-0.355758 -0.748964,-0.898757 -0.262137,-0.561723 -0.262137,-1.366859 0,-0.767688 0.299586,-1.291963 0.299585,-0.524275 0.805136,-0.842584 0.505551,-0.31831 1.160894,-0.449379 0.655344,-0.149793 1.366859,-0.149793 0.898757,0 1.591549,0.149793 v -0.280861 q 0,-0.655344 -0.41193,-1.085998 -0.41193,-0.449379 -1.423032,-0.449379 -0.655343,0 -1.273239,0.09362 -0.599171,0.09362 -0.973653,0.224689 l -0.31831,-1.853686 q 0.430655,-0.149793 1.217067,-0.262137 0.786412,-0.131069 1.628997,-0.131069 z"/>
        <path id="path2599" style="font-weight:bold;font-size:18.7241px;font-variation-settings:normal;vector-effect:none;fill:#008044;fill-opacity:1;stroke:none;stroke-width:11.812;stroke-linecap:butt;stroke-linejoin:miter;stroke-miterlimit:4;stroke-dasharray:none;stroke-dashoffset:0;stroke-opacity:1;marker:none;stop-color:#000000;stop-opacity:1" d="m 76.297972,16.141895 q 0,-1.235791 -0.41193,-1.891135 -0.393206,-0.655343 -1.217067,-0.655343 -0.374482,0 -0.748964,0.112345 -0.355757,0.09362 -0.617895,0.243413 v 4.774645 q 0.262138,0.05617 0.542999,0.0749 0.299586,0.01872 0.505551,0.01872 0.898757,0 1.423031,-0.599171 0.524275,-0.617896 0.524275,-2.078375 z m 2.340513,0.05617 q 0,1.048549 -0.280862,1.909858 -0.280861,0.842585 -0.82386,1.441756 -0.542999,0.599171 -1.329411,0.936205 -0.786413,0.318309 -1.797514,0.318309 -0.898757,0 -1.834962,-0.131068 -0.936205,-0.131069 -1.572824,-0.337034 V 7.996911 l 2.303064,-0.3932061 v 4.4001631 q 0.486827,-0.224689 0.936205,-0.299585 0.449379,-0.09362 0.898757,-0.09362 0.861309,0 1.516652,0.337034 0.655344,0.31831 1.085998,0.936205 0.449378,0.599171 0.674068,1.441756 0.224689,0.842584 0.224689,1.87241 z"/>
        <path id="path2601" style="font-weight:bold;font-size:18.7241px;font-variation-settings:normal;vector-effect:none;fill:#008044;fill-opacity:1;stroke:none;stroke-width:11.812;stroke-linecap:butt;stroke-linejoin:miter;stroke-miterlimit:4;stroke-dasharray:none;stroke-dashoffset:0;stroke-opacity:1;marker:none;stop-color:#000000;stop-opacity:1" d="m 82.965268,18.856889 q 0.842584,0 1.291962,-0.112345 0.449379,-0.131068 0.449379,-0.50555 0,-0.243414 -0.149793,-0.41193 -0.131069,-0.168517 -0.393206,-0.280862 -0.243413,-0.131069 -0.580447,-0.243413 -0.31831,-0.112345 -0.674068,-0.224689 -0.50555,-0.149793 -1.029825,-0.337034 -0.524275,-0.205965 -0.954929,-0.505551 -0.430655,-0.299586 -0.711516,-0.748964 -0.280862,-0.468102 -0.280862,-1.160894 0,-0.561723 0.205965,-1.04855 0.22469,-0.50555 0.674068,-0.880032 0.468103,-0.393207 1.179618,-0.599172 0.711516,-0.224689 1.703893,-0.224689 0.861309,0 1.591549,0.131069 0.748964,0.131069 1.291963,0.374482 l -0.355758,1.947306 q -0.31831,-0.09362 -0.992377,-0.299585 -0.674068,-0.22469 -1.516652,-0.22469 -0.880033,0 -1.198343,0.22469 -0.299585,0.205965 -0.299585,0.449378 0,0.205965 0.131068,0.374482 0.149793,0.149793 0.374482,0.280862 0.243414,0.131068 0.542999,0.262137 0.31831,0.112345 0.674068,0.224689 0.50555,0.168517 1.048549,0.374482 0.542999,0.205965 0.973654,0.524275 0.449378,0.299586 0.730239,0.786412 0.280862,0.468103 0.280862,1.160894 0,0.542999 -0.205965,1.029826 -0.205965,0.486826 -0.692792,0.842584 -0.468102,0.355758 -1.23579,0.561723 -0.767689,0.205965 -1.891135,0.205965 -1.14217,0 -1.947306,-0.262137 -0.805136,-0.262137 -1.291963,-0.468102 l 0.355758,-1.928583 q 0.655344,0.262138 1.385583,0.486827 0.748964,0.224689 1.516653,0.224689 z"/>
        <path id="path2603" style="font-weight:bold;font-size:18.7241px;font-variation-settings:normal;vector-effect:none;fill:#008044;fill-opacity:1;stroke:none;stroke-width:11.812;stroke-linecap:butt;stroke-linejoin:miter;stroke-miterlimit:4;stroke-dasharray:none;stroke-dashoffset:0;stroke-opacity:1;marker:none;stop-color:#000000;stop-opacity:1" d="m 88.378048,16.198067 q 0,-0.954929 0.299586,-1.797514 0.299585,-0.842584 0.917481,-1.46048 0.617895,-0.636619 1.5541,-0.992377 0.954929,-0.374482 2.265616,-0.374482 0.786412,0 1.423032,0.112345 0.636619,0.112344 1.291963,0.374482 l -0.505551,1.853686 q -0.374482,-0.131069 -0.842585,-0.22469 -0.449378,-0.112344 -1.160894,-0.112344 -0.82386,0 -1.385583,0.205965 -0.542999,0.187241 -0.880033,0.542999 -0.337034,0.337034 -0.486827,0.82386 -0.149792,0.486827 -0.149792,1.04855 0,1.217066 0.674067,1.909858 0.692792,0.692792 2.340513,0.692792 0.542999,0 1.123446,-0.0749 0.599171,-0.0749 1.085998,-0.243413 l 0.337033,1.891134 Q 95.792792,20.560782 95.1,20.673127 q -0.692792,0.131068 -1.628997,0.131068 -1.348135,0 -2.321788,-0.355757 Q 90.194286,20.09268 89.576391,19.474784 88.958495,18.856889 88.65891,18.014305 88.378048,17.17172 88.378048,16.198067 Z"/>
        <path id="path2605" style="font-weight:bold;font-size:18.7241px;font-variation-settings:normal;vector-effect:none;fill:#008044;fill-opacity:1;stroke:none;stroke-width:11.812;stroke-linecap:butt;stroke-linejoin:miter;stroke-miterlimit:4;stroke-dasharray:none;stroke-dashoffset:0;stroke-opacity:1;marker:none;stop-color:#000000;stop-opacity:1" d="m 104.59463,14.138416 q -0.22469,-0.05617 -0.543,-0.112345 -0.29958,-0.05617 -0.61789,-0.09362 -0.31831,-0.05617 -0.6179,-0.0749 -0.29958,-0.01872 -0.50555,-0.01872 -0.48682,0 -0.95493,0.05617 -0.4681,0.03745 -0.95493,0.168516 v 6.534711 h -2.321784 v -8.21988 q 0.917481,-0.337033 1.87241,-0.542998 0.973654,-0.205966 2.265614,-0.205966 0.18724,0 0.52428,0.01872 0.35575,0.01872 0.74896,0.0749 0.39321,0.03745 0.78641,0.112345 0.41193,0.05617 0.73024,0.168516 z"/>
        <path id="path2607" style="font-weight:bold;font-size:18.7241px;font-variation-settings:normal;vector-effect:none;fill:#008044;fill-opacity:1;stroke:none;stroke-width:11.812;stroke-linecap:butt;stroke-linejoin:miter;stroke-miterlimit:4;stroke-dasharray:none;stroke-dashoffset:0;stroke-opacity:1;marker:none;stop-color:#000000;stop-opacity:1" d="m 110.58786,9.2701498 q 0,0.6740676 -0.43065,1.0672742 -0.43066,0.393206 -1.02983,0.393206 -0.59917,0 -1.02982,-0.393206 -0.41193,-0.3932066 -0.41193,-1.0672742 0,-0.6927917 0.41193,-1.0859978 0.43065,-0.3932061 1.02982,-0.3932061 0.59917,0 1.02983,0.3932061 0.43065,0.3932061 0.43065,1.0859978 z m 3.42651,10.9535982 q -0.71151,0.337034 -1.34813,0.449379 -0.6179,0.131068 -1.14217,0.131068 -0.89876,0 -1.51665,-0.262137 -0.59918,-0.262137 -0.97366,-0.748964 -0.35576,-0.505551 -0.50555,-1.217066 -0.14979,-0.711516 -0.14979,-1.628997 v -3.239269 h -2.43413 v -1.909859 h 4.73719 v 5.448713 q 0,0.786413 0.28086,1.179619 0.29959,0.374482 0.97366,0.374482 0.31831,0 0.76769,-0.0749 0.44937,-0.09362 1.0111,-0.355758 z"/>
        <path id="path2609" style="font-weight:bold;font-size:18.7241px;font-variation-settings:normal;vector-effect:none;fill:#008044;fill-opacity:1;stroke:none;stroke-width:11.812;stroke-linecap:butt;stroke-linejoin:miter;stroke-miterlimit:4;stroke-dasharray:none;stroke-dashoffset:0;stroke-opacity:1;marker:none;stop-color:#000000;stop-opacity:1" d="m 120.56932,16.272963 q 0,-1.179618 -0.4681,-1.928582 -0.4681,-0.767688 -1.42303,-0.767688 -0.26214,0 -0.56173,0.03745 -0.29958,0.01872 -0.50555,0.03745 v 4.830818 q 0.22469,0.149793 0.59917,0.243413 0.37449,0.09362 0.74897,0.09362 0.82386,0 1.21707,-0.655344 0.3932,-0.674067 0.3932,-1.891134 z m 2.34051,-0.0749 q 0,1.011101 -0.22469,1.87241 -0.22468,0.842584 -0.65534,1.46048 -0.43065,0.599171 -1.086,0.936205 -0.65534,0.337033 -1.51665,0.337033 -0.88003,0 -1.81624,-0.430654 v 3.314166 h -2.30306 V 12.078765 q 0.63662,-0.205965 1.5541,-0.337034 0.9362,-0.131069 1.83496,-0.131069 2.04093,0 3.12693,1.235791 1.08599,1.235791 1.08599,3.351614 z"/>
        <path id="path2611" style="font-weight:bold;font-size:18.7241px;font-variation-settings:normal;vector-effect:none;fill:#008044;fill-opacity:1;stroke:none;stroke-width:11.812;stroke-linecap:butt;stroke-linejoin:miter;stroke-miterlimit:4;stroke-dasharray:none;stroke-dashoffset:0;stroke-opacity:1;marker:none;stop-color:#000000;stop-opacity:1" d="m 125.66379,13.707762 h -2.00347 v -1.909859 h 2.00347 V 9.5884595 l 2.30307,-0.374482 v 2.5839255 h 3.68865 v 1.909859 h -3.68865 v 3.557579 q 0,0.486826 0.0936,0.786412 0.0936,0.299585 0.26214,0.468102 0.16851,0.168517 0.41193,0.224689 0.24341,0.05617 0.543,0.05617 0.31831,0 0.58044,-0.01872 0.28086,-0.01872 0.52428,-0.05617 0.26213,-0.05617 0.52427,-0.149792 0.28086,-0.09362 0.59917,-0.243414 l 0.31831,1.984755 q -0.63662,0.262137 -1.38558,0.374482 -0.73024,0.112344 -1.42303,0.112344 -0.80514,0 -1.42303,-0.131068 -0.6179,-0.131069 -1.04855,-0.505551 -0.43066,-0.374482 -0.65535,-1.04855 -0.22469,-0.692791 -0.22469,-1.797513 z"/>
      </g>
    </g>
  </g>
</svg>
